<?xml version="1.0" standalone="no"?>
<!DOCTYPE svg PUBLIC "-//W3C//DTD SVG 20010904//EN"
 "http://www.w3.org/TR/2001/REC-SVG-20010904/DTD/svg10.dtd">
<svg version="1.0" xmlns="http://www.w3.org/2000/svg"
 width="398.000000pt" height="310.000000pt" viewBox="0 0 398.000000 310.000000"
 preserveAspectRatio="xMidYMid meet">

<g transform="translate(0.000000,310.000000) scale(0.100000,-0.100000)"
fill="#000000" stroke="none">
<path d="M0 1550 l0 -1550 938 0 937 1 -72 38 c-138 73 -272 191 -353 310 -45
67 -127 235 -127 261 0 8 -6 42 -13 75 -7 33 -13 115 -13 182 1 91 -3 125 -13
134 -7 6 -16 27 -19 48 -4 20 -18 82 -32 139 -29 118 -26 184 9 203 20 11 20
16 14 188 -12 298 14 466 94 602 62 104 137 161 270 204 30 9 69 30 85 46 52
49 117 71 209 71 97 0 137 -9 323 -68 219 -69 281 -75 371 -38 31 12 32 12 32
-10 0 -32 -25 -102 -50 -136 l-20 -28 35 -69 c68 -131 78 -194 79 -490 1 -237
3 -263 18 -275 29 -21 33 -94 10 -178 -12 -41 -24 -97 -27 -125 -4 -27 -15
-62 -26 -77 -22 -31 -24 -60 -7 -122 10 -40 10 -47 -6 -65 -25 -27 -150 -86
-215 -101 -77 -18 -249 -8 -325 19 -33 12 -61 19 -64 17 -7 -7 105 -76 175
-108 95 -43 184 -60 288 -57 50 2 96 0 103 -4 16 -11 16 -37 -1 -37 -7 0 -24
-25 -36 -55 -74 -177 -242 -354 -434 -456 l-72 -38 958 -1 957 0 0 1550 0
1550 -1990 0 -1990 0 0 -1550z"/>
<path d="M1847 2443 c-15 -15 -5 -40 23 -62 81 -59 216 -92 378 -90 162 2 178
14 27 21 -148 7 -213 24 -275 70 -23 18 -54 41 -69 50 -26 18 -72 24 -84 11z"/>
<path d="M2000 2420 c0 -15 89 -57 156 -73 73 -19 198 -31 169 -18 -166 79
-325 124 -325 91z"/>
<path d="M1741 2381 c-24 -15 -5 -36 66 -73 173 -90 400 -108 597 -47 36 11
67 23 70 28 3 4 -36 1 -87 -7 -109 -16 -283 -11 -372 13 -33 8 -98 33 -143 55
-86 41 -107 46 -131 31z"/>
<path d="M1689 2294 c-23 -28 14 -61 99 -88 230 -72 504 -58 668 35 72 40 94
70 29 36 -113 -57 -188 -72 -350 -71 -133 0 -160 3 -236 27 -48 14 -112 37
-142 51 -48 21 -58 22 -68 10z"/>
<path d="M1536 2271 c-3 -5 9 -11 27 -14 36 -5 42 -3 32 12 -8 13 -52 15 -59
2z"/>
<path d="M2445 2213 c-135 -89 -412 -112 -639 -53 -44 11 -82 18 -85 15 -11
-12 37 -46 94 -67 52 -19 80 -22 220 -22 124 0 175 4 225 18 80 22 169 68 206
107 34 35 31 35 -21 2z"/>
<path d="M1465 2220 c-4 -6 18 -10 59 -10 37 0 66 4 66 10 0 6 -26 10 -59 10
-33 0 -63 -4 -66 -10z"/>
<path d="M1472 2181 c-23 -4 -48 -13 -54 -19 -16 -16 42 -16 131 -1 50 9 61
14 46 20 -24 9 -64 9 -123 0z"/>
<path d="M1405 2112 c-28 -15 -29 -17 -8 -20 12 -2 41 6 65 17 l43 19 -35 1
c-19 0 -48 -7 -65 -17z"/>
<path d="M2510 2105 c7 -8 22 -15 34 -15 21 1 21 1 2 15 -27 21 -53 20 -36 0z"/>
<path d="M1558 2080 c-37 -20 -78 -67 -93 -105 -4 -11 -22 -80 -40 -153 -18
-73 -43 -148 -54 -167 -11 -19 -23 -63 -26 -97 l-7 -63 37 53 c37 55 101 103
163 123 80 26 212 -2 278 -58 34 -30 82 -102 89 -134 6 -28 9 -29 64 -29 l58
0 12 39 c14 49 91 135 145 163 27 14 67 23 119 26 71 4 82 2 140 -26 69 -34
104 -67 137 -127 l21 -40 -7 95 c-5 80 -11 102 -34 138 -15 23 -36 72 -45 110
-34 135 -48 171 -78 207 -34 42 -31 41 -162 5 -110 -30 -303 -38 -404 -16 -41
8 -103 29 -139 46 -74 35 -121 37 -174 10z"/>
<path d="M1375 2062 l-30 -17 32 -3 c34 -3 73 12 73 28 0 16 -42 11 -75 -8z"/>
<path d="M2490 2070 c0 -14 35 -30 67 -30 l28 1 -24 19 c-24 21 -71 27 -71 10z"/>
<path d="M1358 2009 c-26 -15 -22 -29 8 -29 29 0 64 16 64 30 0 13 -50 12 -72
-1z"/>
<path d="M2510 2010 c0 -14 35 -30 64 -30 31 0 34 15 7 30 -25 13 -71 13 -71
0z"/>
<path d="M1360 1953 c-27 -12 -31 -17 -17 -20 23 -6 79 16 71 28 -7 12 -13 11
-54 -8z"/>
<path d="M2525 1961 c-7 -12 26 -31 54 -31 31 0 25 17 -10 29 -39 13 -36 13
-44 2z"/>
<path d="M1341 1896 c-7 -8 -8 -16 -4 -19 11 -6 49 9 58 22 10 17 -41 13 -54
-3z"/>
<path d="M2545 1899 c9 -13 47 -28 58 -22 4 3 3 11 -4 19 -13 16 -64 20 -54 3z"/>
<path d="M1353 1860 c-19 -8 -33 -30 -18 -30 12 0 55 24 55 32 0 10 -8 9 -37
-2z"/>
<path d="M2550 1862 c0 -11 51 -35 58 -27 3 3 1 9 -4 14 -14 14 -54 23 -54 13z"/>
<path d="M1326 1805 c-7 -19 5 -19 30 0 19 14 19 14 -2 15 -12 0 -24 -7 -28
-15z"/>
<path d="M2584 1805 c26 -19 42 -19 26 0 -7 8 -20 15 -29 15 -13 -1 -13 -3 3
-15z"/>
<path d="M1520 1574 c-63 -35 -103 -94 -108 -160 -6 -78 4 -116 45 -164 134
-156 384 -67 383 137 -1 162 -179 266 -320 187z"/>
<path d="M2224 1581 c-22 -10 -55 -36 -72 -57 -119 -144 -21 -353 166 -354
192 -1 289 239 150 370 -64 60 -164 77 -244 41z"/>
<path d="M1920 1352 c0 -84 -96 -208 -186 -241 -134 -51 -285 -4 -356 109 -17
28 -33 49 -35 47 -2 -2 6 -55 17 -118 11 -63 31 -179 45 -258 30 -169 52 -227
90 -237 46 -11 71 10 111 93 53 111 78 141 148 174 33 16 67 29 73 29 9 0 10
6 2 23 -7 16 -7 31 2 52 l12 30 6 -35 c4 -21 12 -36 23 -38 18 -3 22 12 33
108 10 95 25 94 25 0 0 -88 8 -110 41 -110 35 0 43 28 50 178 3 81 4 162 1
180 -4 31 -6 32 -53 32 -41 0 -49 -3 -49 -18z"/>
<path d="M1243 1304 c-3 -9 2 -43 12 -77 10 -34 24 -82 31 -107 12 -44 13 -43
13 61 1 90 -2 108 -17 122 -23 21 -31 21 -39 1z"/>
<path d="M2657 1302 c-14 -15 -17 -39 -16 -123 l0 -104 30 100 c30 101 33 136
13 142 -6 2 -18 -5 -27 -15z"/>
<path d="M2562 1220 c-68 -109 -216 -158 -345 -114 -26 9 -69 36 -97 61 l-50
45 0 -111 c0 -104 1 -111 20 -111 13 0 20 7 20 19 0 28 11 52 21 45 14 -8 11
-57 -5 -80 -14 -20 -12 -22 39 -43 74 -31 101 -54 137 -117 30 -53 31 -54 67
-48 87 14 142 35 151 57 5 12 16 65 24 117 9 52 25 146 36 209 11 63 19 116
17 118 -2 2 -18 -19 -35 -47z"/>
<path d="M1903 899 c-15 -15 -17 -48 -3 -69 8 -12 10 -12 15 2 4 9 5 30 3 48
-2 25 -5 29 -15 19z"/>
<path d="M2020 873 c0 -43 13 -65 24 -37 9 24 7 39 -9 60 -13 18 -14 16 -15
-23z"/>
<path d="M1842 883 c-7 -12 -12 -34 -11 -50 l1 -28 14 34 c18 41 15 78 -4 44z"/>
<path d="M1965 888 c-4 -10 -4 -26 0 -35 8 -17 8 -17 12 0 3 9 3 25 0 35 -4
16 -4 16 -12 0z"/>
<path d="M2081 880 c0 -14 6 -36 14 -50 l14 -25 1 31 c0 16 -7 39 -15 50 -14
18 -14 18 -14 -6z"/>
<path d="M1787 861 c-18 -31 -24 -72 -8 -55 15 14 42 84 33 84 -4 0 -15 -13
-25 -29z"/>
<path d="M2127 867 c3 -12 13 -34 24 -47 16 -21 19 -22 19 -7 0 20 -30 77 -41
77 -3 0 -4 -10 -2 -23z"/>
<path d="M1350 850 c0 -5 5 -10 10 -10 6 0 10 5 10 10 0 6 -4 10 -10 10 -5 0
-10 -4 -10 -10z"/>
<path d="M1732 835 c-14 -31 -15 -35 -3 -35 5 0 14 14 20 30 12 36 -1 40 -17
5z"/>
<path d="M2191 831 c6 -17 15 -31 19 -31 12 0 0 37 -16 51 -12 9 -12 6 -3 -20z"/>
<path d="M2570 850 c0 -5 5 -10 10 -10 6 0 10 5 10 10 0 6 -4 10 -10 10 -5 0
-10 -4 -10 -10z"/>
<path d="M1350 820 c0 -5 5 -10 10 -10 6 0 10 5 10 10 0 6 -4 10 -10 10 -5 0
-10 -4 -10 -10z"/>
<path d="M1702 810 c0 -14 2 -19 5 -12 2 6 2 18 0 25 -3 6 -5 1 -5 -13z"/>
<path d="M2232 810 c0 -14 2 -19 5 -12 2 6 2 18 0 25 -3 6 -5 1 -5 -13z"/>
<path d="M1670 791 c0 -5 5 -13 10 -16 6 -3 10 -2 10 4 0 5 -4 13 -10 16 -5 3
-10 2 -10 -4z"/>
<path d="M1938 783 c-14 -7 -64 -18 -110 -24 -45 -6 -95 -15 -109 -20 -57 -22
-82 -132 -37 -163 23 -17 75 -21 94 -8 6 4 25 29 43 55 38 56 61 67 140 67 96
0 120 -8 152 -54 50 -69 58 -76 88 -76 35 0 61 9 61 21 0 5 -26 22 -58 38 -64
32 -135 83 -197 141 -38 35 -42 36 -67 23z"/>
<path d="M2257 793 c-4 -3 -7 -11 -7 -17 0 -6 5 -5 12 2 6 6 9 14 7 17 -3 3
-9 2 -12 -2z"/>
<path d="M1358 783 c7 -3 16 -2 19 1 4 3 -2 6 -13 5 -11 0 -14 -3 -6 -6z"/>
<path d="M1355 750 c-3 -5 1 -10 9 -10 8 0 18 5 21 10 3 6 -1 10 -9 10 -8 0
-18 -4 -21 -10z"/>
<path d="M1645 750 c3 -5 11 -10 16 -10 6 0 7 5 4 10 -3 6 -11 10 -16 10 -6 0
-7 -4 -4 -10z"/>
<path d="M1365 719 c-4 -6 -5 -13 -2 -16 7 -7 27 6 27 18 0 12 -17 12 -25 -2z"/>
<path d="M1380 675 c-10 -12 -10 -15 4 -15 9 0 16 7 16 15 0 8 -2 15 -4 15 -2
0 -9 -7 -16 -15z"/>
<path d="M1605 640 c3 -5 8 -10 11 -10 2 0 4 5 4 10 0 6 -5 10 -11 10 -5 0 -7
-4 -4 -10z"/>
<path d="M1396 624 c-4 -9 -4 -19 -2 -21 8 -8 26 8 26 23 0 19 -16 18 -24 -2z"/>
<path d="M1950 558 c-15 -84 -26 -493 -13 -501 14 -9 30 102 44 298 10 155 6
265 -11 265 -4 0 -13 -28 -20 -62z"/>
<path d="M2037 604 c-16 -26 -39 -560 -23 -544 21 21 38 137 43 300 4 163 -4
269 -20 244z"/>
<path d="M1436 577 c-10 -15 -16 -31 -12 -34 11 -11 38 23 34 43 -3 17 -6 15
-22 -9z"/>
<path d="M1476 528 c-13 -29 -22 -55 -20 -57 10 -11 46 39 54 72 12 55 -7 46
-34 -15z"/>
<path d="M1581 450 c1 -74 4 -146 9 -160 l7 -25 8 28 c11 41 0 266 -14 280 -8
8 -11 -23 -10 -123z"/>
<path d="M1531 527 c-17 -71 -25 -157 -13 -157 5 0 13 8 17 18 9 21 20 182 13
182 -3 0 -11 -19 -17 -43z"/>
<path d="M1849 518 c-27 -109 -9 -482 21 -428 11 22 30 221 30 320 0 86 -14
160 -29 160 -5 0 -15 -24 -22 -52z"/>
<path d="M2336 508 c-9 -81 -7 -228 4 -228 16 0 27 125 22 238 -3 59 -18 53
-26 -10z"/>
<path d="M2391 495 c1 -71 22 -149 33 -123 9 20 -11 159 -24 172 -7 7 -10 -12
-9 -49z"/>
<path d="M2430 540 c0 -16 21 -53 34 -62 21 -15 25 -8 12 23 -14 33 -46 60
-46 39z"/>
<path d="M2116 484 c-6 -31 -30 -226 -41 -331 -4 -40 -2 -63 4 -63 31 0 79
360 54 405 -10 16 -11 15 -17 -11z"/>
<path d="M2277 495 c-10 -32 -25 -134 -33 -217 -7 -81 3 -101 28 -55 12 22 24
234 16 272 -4 20 -4 20 -11 0z"/>
<path d="M1634 444 c-8 -68 1 -193 16 -208 7 -7 10 32 10 127 0 141 -13 182
-26 81z"/>
<path d="M1705 473 c-12 -29 -18 -236 -8 -262 7 -18 11 15 16 125 3 82 4 150
2 152 -1 2 -6 -5 -10 -15z"/>
<path d="M1778 480 c-32 -65 -38 -259 -11 -318 l18 -37 3 93 c4 131 -2 280
-10 262z"/>
<path d="M2185 408 c-20 -87 -32 -281 -16 -257 28 43 65 329 43 329 -6 0 -18
-32 -27 -72z"/>
</g>
</svg>
