<?xml version="1.0" standalone="no"?>
<!DOCTYPE svg PUBLIC "-//W3C//DTD SVG 20010904//EN"
 "http://www.w3.org/TR/2001/REC-SVG-20010904/DTD/svg10.dtd">
<svg version="1.0" xmlns="http://www.w3.org/2000/svg"
 width="398.000000pt" height="310.000000pt" viewBox="0 0 398.000000 310.000000"
 preserveAspectRatio="xMidYMid meet">

<g transform="translate(0.000000,310.000000) scale(0.100000,-0.100000)"
fill="#000000" stroke="none">
<path d="M1953 3086 c-23 -8 -67 -28 -97 -45 l-55 -31 -43 20 c-27 12 -65 20
-104 20 -103 0 -180 -37 -235 -113 l-29 -39 -127 -2 c-150 -2 -207 -18 -315
-92 -105 -71 -192 -190 -218 -296 -10 -40 -19 -51 -55 -72 -23 -14 -65 -50
-93 -81 -66 -72 -94 -144 -96 -250 l-1 -80 -53 -53 c-183 -181 -163 -480 42
-639 28 -22 28 -23 16 -74 -25 -101 4 -209 76 -289 40 -45 122 -90 162 -90 13
0 41 -17 65 -41 42 -41 127 -89 158 -89 10 0 20 -11 23 -26 4 -14 31 -50 59
-79 68 -67 130 -89 232 -83 l72 5 28 -64 c83 -191 246 -364 436 -463 74 -38
81 -40 169 -40 88 0 95 2 169 40 186 97 359 278 432 454 22 54 22 54 86 71
130 32 281 129 333 213 l25 40 90 4 c75 3 101 9 155 35 162 78 248 229 238
415 l-5 87 37 40 c142 149 135 407 -15 539 l-42 37 -5 85 c-7 131 -66 236
-174 311 -32 22 -43 37 -49 66 -17 92 -75 163 -170 208 -52 25 -80 46 -95 69
-41 67 -132 116 -214 116 -38 0 -45 4 -72 43 -18 25 -52 54 -85 72 -47 26 -64
30 -135 30 -76 1 -83 3 -121 33 -78 62 -147 85 -258 89 -66 2 -114 -2 -142
-11z m199 -47 c71 -15 145 -52 199 -99 l44 -39 -60 -1 c-37 0 -77 -8 -102 -20
-24 -10 -43 -20 -43 -22 0 -2 42 -3 93 -3 81 0 99 -3 149 -28 37 -18 77 -50
113 -89 30 -34 55 -55 55 -47 -1 33 -41 98 -85 137 -27 24 -57 56 -67 72 l-18
30 53 0 c94 0 164 -47 245 -166 12 -17 12 -17 9 9 -3 21 0 27 14 27 34 0 112
-43 152 -83 53 -53 79 -116 87 -212 l6 -80 17 37 c10 22 17 63 17 98 0 33 3
60 8 60 4 0 25 -12 45 -26 51 -34 94 -105 109 -176 11 -53 16 -61 53 -83 125
-73 201 -241 175 -385 -10 -54 -40 -136 -55 -152 -4 -4 -21 21 -39 55 -23 46
-44 71 -80 95 -26 17 -57 32 -69 32 -16 0 -10 -10 32 -55 99 -105 121 -215 68
-345 -14 -35 -24 -66 -22 -69 3 -2 20 12 39 32 40 42 66 112 66 176 0 34 6 51
24 70 28 30 76 121 76 145 0 41 54 -13 96 -97 72 -141 44 -298 -73 -413 l-54
-52 12 -47 c29 -116 -15 -258 -107 -345 -82 -78 -148 -104 -263 -105 -90 0
-94 -1 -103 -25 -17 -45 -81 -113 -153 -159 -179 -117 -400 -133 -598 -43 -70
32 -182 101 -175 108 3 2 31 -5 64 -17 76 -27 249 -37 325 -19 133 31 265 124
315 222 37 73 29 75 -33 8 -41 -44 -58 -58 -64 -48 -15 23 -10 78 10 106 11
15 22 50 26 77 3 28 15 84 27 125 23 84 19 157 -10 178 -15 12 -17 38 -18 275
-1 296 -11 359 -79 490 l-35 69 20 28 c25 34 50 104 50 136 0 22 -1 22 -32 10
-90 -37 -152 -31 -371 38 -186 59 -226 68 -323 68 -92 0 -157 -22 -209 -71
-16 -16 -55 -37 -85 -46 -133 -43 -208 -100 -270 -204 -80 -136 -106 -304 -94
-602 6 -172 6 -177 -14 -188 -35 -19 -38 -85 -9 -203 14 -57 28 -119 32 -139
3 -21 12 -42 19 -48 10 -8 14 -46 14 -144 1 -78 7 -156 15 -190 17 -69 14 -73
-66 -63 -68 9 -142 43 -190 88 -44 42 -47 58 -9 58 31 0 126 42 137 60 6 10
-1 11 -31 4 -21 -5 -77 -9 -124 -9 -68 1 -93 5 -127 23 -64 33 -111 79 -146
141 -27 47 -33 52 -35 33 -2 -13 3 -43 11 -67 l15 -44 -24 9 c-78 30 -141 88
-173 160 -25 56 -28 153 -5 210 9 22 18 40 21 40 3 0 21 -14 41 -31 40 -35
126 -79 156 -79 14 0 6 9 -25 28 -129 82 -181 238 -134 403 l6 24 -20 -25
c-41 -50 -69 -175 -52 -236 6 -21 8 -40 6 -42 -9 -9 -77 51 -110 96 -118 161
-86 398 68 514 l44 33 -5 90 c-6 125 18 187 102 271 78 77 143 104 254 104 64
1 74 3 57 12 -12 7 -57 12 -107 11 l-88 -1 37 71 c91 173 276 293 479 311 58
5 66 4 50 -6 -49 -33 -111 -97 -127 -133 -10 -22 -18 -60 -18 -85 l0 -45 20
40 c59 114 117 165 220 191 57 15 78 14 163 -2 20 -4 26 -3 22 5 -13 21 -85
51 -121 51 -19 0 -35 4 -35 9 0 22 83 81 136 97 74 21 142 14 217 -26 60 -30
60 -30 41 16 -9 22 139 71 218 73 20 1 61 -4 90 -10z m-221 -607 c15 -9 46
-32 69 -50 62 -46 127 -63 275 -70 151 -7 135 -19 -27 -21 -162 -2 -297 31
-378 90 -28 22 -38 47 -23 62 12 13 58 7 84 -11z m174 -16 c43 -11 151 -54
220 -87 29 -13 -96 -1 -169 18 -67 16 -156 58 -156 73 0 14 46 12 105 -4z
m-233 -66 c45 -22 110 -47 143 -55 89 -24 263 -29 372 -13 51 8 90 11 87 7 -3
-5 -34 -17 -70 -28 -197 -61 -424 -43 -597 47 -71 37 -90 58 -66 73 24 15 45
10 131 -31z m44 -122 c66 -19 103 -23 224 -23 157 0 234 16 345 72 65 34 43 4
-29 -36 -164 -93 -438 -107 -668 -35 -85 27 -122 60 -99 88 11 12 22 10 80
-14 38 -16 104 -40 147 -52z m-321 41 c10 -15 4 -17 -32 -12 -18 3 -30 9 -27
14 7 13 51 11 59 -2z m871 -58 c-37 -39 -126 -85 -206 -107 -50 -14 -101 -18
-225 -18 -140 0 -168 3 -220 22 -57 21 -105 55 -94 67 3 3 41 -4 85 -15 227
-59 504 -36 639 53 52 33 55 33 21 -2z m-876 9 c0 -6 -29 -10 -66 -10 -41 0
-63 4 -59 10 3 6 33 10 66 10 33 0 59 -4 59 -10z m5 -39 c15 -6 4 -11 -46 -20
-89 -15 -147 -15 -131 1 21 21 139 34 177 19z m-133 -72 c-24 -11 -53 -19 -65
-17 -21 3 -20 5 8 20 17 10 46 17 65 17 l35 -1 -43 -19z m1084 -4 c19 -14 19
-14 -2 -15 -12 0 -27 7 -34 15 -17 20 9 21 36 0z m-814 -35 c36 -17 98 -38
139 -46 101 -22 294 -14 404 16 131 36 128 37 162 -5 30 -36 44 -72 78 -207 9
-38 30 -87 45 -110 23 -36 29 -58 34 -138 l7 -95 -21 40 c-33 60 -68 93 -137
127 -58 28 -69 30 -140 26 -52 -3 -92 -12 -119 -26 -54 -28 -131 -114 -145
-163 l-12 -39 -58 0 c-55 0 -58 1 -64 29 -7 32 -55 104 -89 134 -66 56 -198
84 -278 58 -62 -20 -126 -68 -163 -123 l-37 -53 7 63 c3 34 15 78 26 97 11 19
36 94 54 167 18 73 36 142 40 153 15 38 56 85 93 105 53 27 100 25 174 -10z
m-282 0 c0 -16 -39 -31 -73 -28 l-32 3 30 17 c33 19 75 24 75 8z m1111 -10
l24 -19 -28 -1 c-32 0 -67 16 -67 30 0 17 47 11 71 -10z m-1131 -50 c0 -14
-35 -30 -64 -30 -30 0 -34 14 -8 29 22 13 72 14 72 1z m1151 0 c27 -15 24 -30
-7 -30 -29 0 -64 16 -64 30 0 13 46 13 71 0z m-1167 -49 c8 -12 -48 -34 -71
-28 -14 3 -10 8 17 20 41 19 47 20 54 8z m1155 -2 c35 -12 41 -29 10 -29 -28
0 -61 19 -54 31 8 11 5 11 44 -2z m-1174 -60 c-9 -13 -47 -28 -58 -22 -4 3 -3
11 4 19 13 16 64 20 54 3z m1204 -3 c7 -8 8 -16 4 -19 -11 -6 -49 9 -58 22
-10 17 41 13 54 -3z m-1209 -34 c0 -8 -43 -32 -55 -32 -15 0 -1 22 18 30 29
11 37 12 37 2z m1214 -13 c5 -5 7 -11 4 -14 -7 -8 -58 16 -58 27 0 10 40 1 54
-13z m-1248 -44 c-25 -19 -37 -19 -30 0 4 8 16 15 28 15 21 -1 21 -1 2 -15z
m1254 0 c16 -19 0 -19 -26 0 -16 12 -16 14 -3 15 9 0 22 -7 29 -15z m-588
-467 c3 -18 2 -99 -1 -180 -7 -150 -15 -178 -50 -178 -33 0 -41 22 -41 110 0
94 -15 95 -25 0 -11 -96 -15 -111 -33 -108 -11 2 -19 17 -23 38 l-6 35 -12
-30 c-9 -21 -9 -36 -2 -52 8 -17 7 -23 -2 -23 -6 0 -40 -13 -73 -29 -70 -33
-95 -63 -148 -174 -40 -83 -65 -104 -111 -93 -38 10 -60 68 -90 237 -14 79
-34 195 -45 258 -11 63 -19 116 -17 118 2 2 18 -19 35 -47 71 -113 222 -160
356 -109 90 33 186 157 186 241 0 15 8 18 49 18 47 0 49 -1 53 -32z m-740 -35
c15 -14 18 -32 17 -122 0 -104 -1 -105 -13 -61 -7 25 -21 73 -31 107 -24 82
-13 112 27 76z m1416 -9 c1 -10 -11 -64 -27 -119 l-30 -100 0 104 c-1 84 2
108 16 123 20 22 37 19 41 -8z m-118 -145 c-11 -63 -27 -157 -36 -209 -8 -52
-19 -105 -24 -117 -9 -22 -64 -43 -151 -57 -36 -6 -37 -5 -67 48 -36 63 -63
86 -137 117 -51 21 -53 23 -39 43 16 23 19 72 5 80 -10 7 -21 -17 -21 -45 0
-12 -7 -19 -20 -19 -19 0 -20 7 -20 111 l0 111 50 -45 c28 -25 71 -52 97 -61
129 -44 277 5 345 114 17 28 33 49 35 47 2 -2 -6 -55 -17 -118z m-665 -317
c-5 -14 -7 -14 -15 -2 -14 21 -12 54 3 69 10 10 13 6 15 -19 2 -18 1 -39 -3
-48z m135 32 c0 -7 -3 -19 -6 -28 -11 -28 -24 -6 -24 37 1 39 2 41 15 23 8
-11 15 -25 15 -32z m-204 -25 l-14 -34 -1 28 c-1 35 21 81 27 56 1 -9 -4 -32
-12 -50z m131 14 c-4 -17 -4 -17 -12 0 -4 9 -4 25 0 35 8 16 8 16 12 0 3 -10
3 -26 0 -35z m133 -17 l-1 -31 -14 25 c-8 14 -14 36 -14 50 0 24 0 24 14 6 8
-11 15 -34 15 -50z m-305 17 c-20 -47 -35 -64 -35 -39 0 21 31 76 42 76 5 0 1
-17 -7 -37z m348 8 c9 -16 17 -37 17 -48 0 -15 -3 -14 -19 7 -20 25 -34 70
-22 70 4 0 14 -13 24 -29z m-783 -11 c0 -5 -4 -10 -10 -10 -5 0 -10 5 -10 10
0 6 5 10 10 10 6 0 10 -4 10 -10z m379 -20 c-6 -16 -15 -30 -20 -30 -12 0 -11
4 3 35 16 35 29 31 17 -5z m464 -10 c8 -32 -10 -23 -22 11 -9 26 -9 29 3 20 8
-7 16 -21 19 -31z m377 30 c0 -5 -4 -10 -10 -10 -5 0 -10 5 -10 10 0 6 5 10
10 10 6 0 10 -4 10 -10z m-1220 -30 c0 -5 -4 -10 -10 -10 -5 0 -10 5 -10 10 0
6 5 10 10 10 6 0 10 -4 10 -10z m337 -22 c-3 -7 -5 -2 -5 12 0 14 2 19 5 13 2
-7 2 -19 0 -25z m530 0 c-3 -7 -5 -2 -5 12 0 14 2 19 5 13 2 -7 2 -19 0 -25z
m-547 -19 c0 -6 -4 -7 -10 -4 -5 3 -10 11 -10 16 0 6 5 7 10 4 6 -3 10 -11 10
-16z m404 -94 c27 -20 76 -50 108 -66 32 -16 58 -33 58 -38 0 -12 -26 -21 -61
-21 -30 0 -38 7 -88 76 -32 46 -56 54 -152 54 -79 0 -102 -11 -140 -67 -18
-26 -37 -51 -43 -55 -19 -13 -71 -9 -94 8 -45 31 -20 141 37 163 14 5 64 14
109 20 46 6 96 17 110 24 25 13 29 12 67 -23 22 -21 62 -54 89 -75z m168 93
c-7 -7 -12 -8 -12 -2 0 14 12 26 19 19 2 -3 -1 -11 -7 -17z m-885 6 c-3 -3
-12 -4 -19 -1 -8 3 -5 6 6 6 11 1 17 -2 13 -5z m8 -34 c-3 -5 -13 -10 -21 -10
-8 0 -12 5 -9 10 3 6 13 10 21 10 8 0 12 -4 9 -10z m280 0 c3 -5 2 -10 -4 -10
-5 0 -13 5 -16 10 -3 6 -2 10 4 10 5 0 13 -4 16 -10z m-275 -29 c0 -12 -20
-25 -27 -18 -7 7 6 27 18 27 5 0 9 -4 9 -9z m10 -46 c0 -8 -7 -15 -16 -15 -14
0 -14 3 -4 15 7 8 14 15 16 15 2 0 4 -7 4 -15z m220 -35 c0 -5 -2 -10 -4 -10
-3 0 -8 5 -11 10 -3 6 -1 10 4 10 6 0 11 -4 11 -10z m-200 -14 c0 -15 -18 -31
-26 -23 -7 7 7 37 17 37 5 0 9 -6 9 -14z m565 -58 c13 -104 -26 -525 -48 -511
-6 4 -8 82 -4 222 5 207 20 341 37 341 5 0 12 -24 15 -52z m72 -208 c-5 -163
-22 -279 -43 -300 -16 -16 7 518 23 544 16 25 24 -81 20 -244z m-611 192 c-24
-24 -31 -6 -10 25 16 24 19 26 22 9 2 -10 -3 -25 -12 -34z m64 -9 c-8 -33 -44
-83 -54 -72 -6 7 42 109 52 109 6 0 7 -14 2 -37z m98 -101 c2 -66 1 -133 -3
-149 l-8 -28 -7 25 c-13 43 -12 296 1 283 7 -7 14 -62 17 -131z m-61 46 c-5
-89 -13 -118 -29 -118 -7 0 -8 20 -4 57 8 65 26 143 34 143 2 0 2 -37 -1 -82z
m342 45 c14 -50 14 -181 0 -318 -14 -135 -23 -155 -40 -95 -27 96 -10 450 22
450 4 0 13 -17 18 -37z m473 -15 c5 -113 -6 -238 -22 -238 -11 0 -13 147 -4
228 8 63 23 69 26 10z m58 -56 c14 -87 4 -129 -16 -67 -15 48 -19 164 -4 149
5 -5 14 -42 20 -82z m56 39 c13 -31 9 -38 -12 -23 -13 9 -34 46 -34 62 0 21
32 -6 46 -39z m-339 -125 c-9 -144 -38 -286 -58 -286 -6 0 -8 23 -4 63 11 105
35 300 41 331 6 26 7 27 17 11 6 -11 7 -57 4 -119z m151 -16 c-4 -110 -16
-160 -40 -160 -15 0 7 224 29 295 7 20 7 20 11 0 2 -11 2 -71 0 -135z m-628 3
c0 -95 -3 -134 -10 -127 -15 15 -24 140 -16 208 13 101 26 60 26 -81z m53 -27
c-5 -110 -9 -143 -16 -125 -15 40 1 294 18 277 2 -2 1 -70 -2 -152z m75 -118
l-3 -93 -18 37 c-27 59 -21 253 11 318 8 18 14 -131 10 -262z m428 175 c-8
-99 -31 -217 -47 -242 -16 -24 -4 170 16 257 23 102 40 94 31 -15z"/>
<path d="M820 1962 c-33 -34 -53 -99 -48 -156 4 -34 -2 -50 -31 -95 -68 -103
-51 -222 45 -318 23 -23 56 -49 73 -57 17 -9 50 -36 74 -60 24 -23 58 -48 76
-54 l32 -11 -39 44 c-48 55 -67 116 -58 190 3 30 4 55 1 55 -8 0 -45 -78 -45
-95 0 -22 -20 -19 -62 10 -77 52 -106 154 -73 254 9 29 23 51 31 51 8 0 14 -5
14 -10 0 -13 89 -70 108 -70 9 0 -2 18 -26 44 -59 64 -75 101 -76 172 0 45 6
71 22 97 26 44 20 47 -18 9z"/>
</g>
</svg>
